# xmcd CD database file
#
# Track frame offsets:
#	182
#	10632
#	22852
#	32742
#	45770
#	59905
#	76035
#	88435
#	99690
#	109430
#	120972
#	132202
#	144005
#	159252
#	167052
#	180460
#	192507
#	208245
#	224115
#	234307
#
# Disc length: 3269 seconds
#
# Revision: 2
# Processed by: cddbd v1.5PL3 Copyright (c) Steve Scherf et al.
# Submitted via: CDex 1.51
#
DISCID=0a0cc314
DTITLE=Country Girls - 20 Country Greats
DYEAR=1988
DGENRE=Country
TTITLE0=Billy Jo Spears - I'm Gonna Be A Country Girl Again
TTITLE1=Dolly Parton - Making Believe
TTITLE2=Donna Fargo - Sticks And Stones
TTITLE3=Dolly Parton - Little Blossom
TTITLE4=Anne Murray - What About Me
TTITLE5=Billy Jo Speirs - Love Of The Common People
TTITLE6=Dolly Parton - Two Little Orphans
TTITLE7=Donna Fargo - Wishful Thinking
TTITLE8=Dolly Parton - Girl Left Alone
TTITLE9=Anne Murray - Last Thing On My Mind
TTITLE10=Dolly Parton - Honky Tonk Angels
TTITLE11=Billy Jo Speirs - Til I Get It Right
TTITLE12=Anne Murray - Both Sides Now
TTITLE13=Dolly Parton - Puppy Love
TTITLE14=Donna Fargo - Daddy
TTITLE15=Dolly Parton - Letter To Heaven
TTITLE16=Anne Murray - There Goes My Everything
TTITLE17=Billy Jo Speirs - Queen Of The Silver Dollar
TTITLE18=Dolly Parton - Release Me
TTITLE19=Donna fargo - All That's Keeping Me Alive
EXTD=YEAR: 1988
EXTT0=
EXTT1=
EXTT2=
EXTT3=
EXTT4=
EXTT5=
EXTT6=
EXTT7=
EXTT8=
EXTT9=
EXTT10=
EXTT11=
EXTT12=
EXTT13=
EXTT14=
EXTT15=
EXTT16=
EXTT17=
EXTT18=
EXTT19=
PLAYORDER=
